<?xml version="1.0" encoding="utf-8"?>
<!-- Generator: Adobe Illustrator 19.0.0, SVG Export Plug-In . SVG Version: 6.00 Build 0)  -->
<svg version="1.1" id="Layer_1" xmlns="http://www.w3.org/2000/svg" xmlns:xlink="http://www.w3.org/1999/xlink" x="0px" y="0px"
	 viewBox="0 0 24 24" style="enable-background:new 0 0 24 24;" xml:space="preserve">
<style type="text/css">
	.st0{fill:#10B9FF;}
</style>
<g>
	<g>
		<path class="st0" d="M17.8,23.1H5.3c-0.8,0-1.5-0.5-1.9-1.2c-0.3-0.7-0.2-1.6,0.3-2.2l9.5-11h-10l3-4.1h11.4
			c0.8,0,1.5,0.5,1.9,1.2c0.3,0.7,0.2,1.6-0.3,2.2L9.8,19h8V23.1z"/>
	</g>
	<g>
		<rect x="18.1" y="15.8" class="st0" width="0.8" height="7.3"/>
		<polygon class="st0" points="19.4,19.6 19.4,15.8 21.4,16.8 23.3,17.8 21.4,18.7 		"/>
	</g>
	<path class="st0" d="M3,0.9c-5.1,0.2,0,7.7,0,7.7C7.5,2.2,4.6,0.9,3,0.9z M3.1,4.1C2.5,4.1,2,3.6,2,3c0-0.7,0.6-1.1,1.1-1.1
		c0.7,0,1.1,0.6,1.1,1.1S3.7,4.1,3.1,4.1z"/>
</g>
</svg>
